<svg width="31" height="31" viewBox="0 0 31 31" fill="none" xmlns="http://www.w3.org/2000/svg">
<path d="M1.23528 18.4191C-1.30765 14.0146 0.201436 8.38259 4.60592 5.83966L12.5809 1.23528C16.9854 -1.30765 22.6174 0.201436 25.1603 4.60592L29.7647 12.5809C32.3076 16.9854 30.7986 22.6174 26.3941 25.1603L18.4191 29.7647C14.0146 32.3076 8.38259 30.7986 5.83966 26.3941L1.23528 18.4191Z" fill="#B9E273"/>
<path d="M22.7652 7.40906L8.17944 7.40906C7.62716 7.40906 7.17944 7.85677 7.17944 8.40906L7.17944 16.4091L7.17944 22.9948C7.17944 23.8857 8.25658 24.3319 8.88655 23.702L16.1794 16.4091L23.4723 9.11616C24.1023 8.4862 23.6561 7.40906 22.7652 7.40906Z" fill="black"/>
<path d="M24 22.9948L24 13.8233C24 12.9324 22.9229 12.4862 22.2929 13.1162L17.7071 17.702C17.3166 18.0925 17.3166 18.7256 17.7071 19.1162L22.2929 23.702C22.9229 24.3319 24 23.8857 24 22.9948Z" fill="black"/>
</svg>
