<svg width="35" height="36" viewBox="0 0 35 36" fill="none" xmlns="http://www.w3.org/2000/svg">
<path d="M1.39467 21.2957C-1.47638 16.3229 0.227428 9.96421 5.20023 7.09316L14.2043 1.89467C19.1771 -0.976381 25.5358 0.727428 28.4068 5.70023L33.6053 14.7043C36.4764 19.6771 34.7726 26.0358 29.7998 28.9068L20.7957 34.1053C15.8229 36.9764 9.46421 35.2726 6.59316 30.2998L1.39467 21.2957Z" fill="#B9E273"/>
<path d="M24.7652 9.90906L10.1794 9.90906C9.62716 9.90906 9.17944 10.3568 9.17944 10.9091L9.17944 18.9091L9.17944 25.4948C9.17944 26.3857 10.2566 26.8319 10.8865 26.202L18.1794 18.9091L25.4723 11.6162C26.1023 10.9862 25.6561 9.90906 24.7652 9.90906Z" fill="black"/>
<path d="M26 25.4948L26 16.3233C26 15.4324 24.9229 14.9862 24.2929 15.6162L19.7071 20.202C19.3166 20.5925 19.3166 21.2256 19.7071 21.6162L24.2929 26.202C24.9229 26.8319 26 26.3857 26 25.4948Z" fill="black"/>
</svg>
